{"title":"Hans.and.gretel.witch.hunters.ENG.2013.cam-rip.avi","uid":8115075,"size":808166108,"categoryP":"video","categoryS":"movies","magnet":"?xt=urn:btih:45730ba9bce17501572358bf66a2ad6dd6a81165&amp;dn=Hans.and.gretel.witch.hunters.ENG.2013.cam-rip.avi&amp;tr=udp%3A%2F%2Ftracker.openbittorrent.com%3A80&amp;tr=udp%3A%2F%2Fopen.demonii.com%3A1337&amp;tr=udp%3A%2F%2Ftracker.coppersurfer.tk%3A6969&amp;tr=udp%3A%2F%2Fexodus.desync.com%3A6969","seeders":1,"leechers":0,"uploader":"Happyviking","files":-1,"time":1360275287,"description":"\n &lt;a href=&quot;\nhttp://www.imdb.com/title/tt1428538&quot; rel=&quot;nofollow&quot; target=&quot;_NEW&quot;&gt;\nhttp://www.imdb.com/title/tt1428538&lt;/a&gt;\n\n\n\n\nGeneral\nComplete name               : Hans.and.gretel.witch.hunters.ENG.2013.cam-rip.avi\nFormat                           : AVI\nFormat/Info                      : Audio Video Interleave\nFile size                        : 771 MiB\nDuration                         : 1h 20mn\nOverall bit rate                 : 1 343 Kbps\nWriting library                  : VirtualDub build 32842/release\n\nVideo\nID                               : 0\nFormat                           : AVC\nFormat/Info                      : Advanced Video Codec\nFormat profile                   : &lt;a class=&quot;__cf_email__&quot; href=&quot;/cdn-cgi/l/email-protection&quot; data-cfemail=&quot;6d25040a052d2159435c&quot;&gt;[email&amp;#160;protected]&lt;/a&gt;&lt;script cf-hash='f9e31' type=&quot;text/javascript&quot;&gt;\n/* &lt;![CDATA[ */!function(){try{var t=&quot;currentScript&quot;in document?document.currentScript:function(){for(var t=document.getElementsByTagName(&quot;script&quot;),e=t.length;e--;)if(t[e].getAttribute(&quot;cf-hash&quot;))return t[e]}();if(t&amp;&amp;t.previousSibling){var e,r,n,i,c=t.previousSibling,a=c.getAttribute(&quot;data-cfemail&quot;);if(a){for(e=&quot;&quot;,r=parseInt(a.substr(0,2),16),n=2;a.length-n;n+=2)i=parseInt(a.substr(n,2),16)^r,e+=String.fromCharCode(i);e=document.createTextNode(e),c.parentNode.replaceChild(e,c)}}}catch(u){}}();/* ]]&gt; */&lt;/script&gt;\nFormat settings, CABAC           : Yes\nFormat settings, ReFrames        : 4 frames\nCodec ID                         : AVC1\nDuration                         : 10s 10ms\nBit rate                         : 1 200 Kbps\nWidth                            : 700 pixels\nHeight                           : 330 pixels\nDisplay aspect ratio             : 2.2:1\nFrame rate                       : 29.970 fps\nColor space                      : YUV\nChroma subsampling               : 4:2:0\nBit depth                        : 8 bits\nScan type                        : Progressive\nBits/(Pixel*Frame)               : 0.173\nStream size                      : 691 MiB (90%)\n\nAudio\nID                               : 1\nFormat                           : MPEG Audio\nFormat version                   : Version 1\nFormat profile                   : Layer 3\nMode                             : Joint stereo\nMode extension                   : MS Stereo\nCodec ID                         : 55\nCodec ID/Hint                    : MP3\nDuration                         : 1h 20mn\nBit rate mode                    : Constant\nBit rate                         : 128 Kbps\nChannel(s)                       : 2 channels\nSampling rate                    : 48.0 KHz\nCompression mode                 : Lossy\nStream size                      : 73.4 MiB (10%)\nAlignment                        : Split accross interleaves\nInterleave, duration             : 33 ms (1.00 video frame)\nInterleave, preload duration     : 500 ms\nWriting library                  : LAME3.98.4\n\nM  6\nA  6\n\n2 Sample from cam inHappyviking.  Open fore all.  ","torrent":{"xt":"urn:btih:45730ba9bce17501572358bf66a2ad6dd6a81165","amp;dn":"Hans.and.gretel.witch.hunters.ENG.2013.cam-rip.avi","amp;tr":["udp%3A%2F%2Ftracker.openbittorrent.com%3A80","udp%3A%2F%2Fopen.demonii.com%3A1337","udp%3A%2F%2Ftracker.coppersurfer.tk%3A6969","udp%3A%2F%2Fexodus.desync.com%3A6969"],"infoHash":"45730ba9bce17501572358bf66a2ad6dd6a81165","infoHashBuffer":{"type":"Buffer","data":[69,115,11,169,188,225,117,1,87,35,88,191,102,162,173,109,214,168,17,101]},"announce":[],"urlList":[]}}